<svg width="27" height="27" viewBox="0 0 27 27" fill="none" xmlns="http://www.w3.org/2000/svg">
<rect width="27" height="27" rx="4" fill="white"/>
<path d="M17.8542 19.0417H11.125C10.0973 19.0414 9.08993 18.7554 8.21544 18.2155C7.34096 17.6757 6.63381 16.9033 6.17302 15.9847C5.71223 15.0661 5.51595 14.0375 5.60612 13.0138C5.69629 11.99 6.06935 11.0116 6.68362 10.1876C7.29789 9.36374 8.12917 8.72687 9.08455 8.34821C10.0399 7.96955 11.0818 7.86402 12.0937 8.0434C13.1056 8.22279 14.0477 8.68002 14.8147 9.36402C15.5818 10.048 16.1435 10.9318 16.4371 11.9167H17.8542C18.799 11.9167 19.7051 12.292 20.3732 12.9601C21.0413 13.6282 21.4167 14.5343 21.4167 15.4792C21.4167 16.424 21.0413 17.3301 20.3732 17.9982C19.7051 18.6663 18.799 19.0417 17.8542 19.0417Z" stroke="#1E2BFF" stroke-width="2" stroke-linecap="round" stroke-linejoin="round"/>
</svg>
